<svg xmlns="http://www.w3.org/2000/svg" viewBox="0 0 30 60" id="brand"><path d="M0 0h30v60H0z" fill="#07426c"/><path d="M15.37 47.089h-.477v-1.422h.477v1.421zm2.153-6.268h-.478V39.4h.478v1.422zm-8.84-2.452a.477.477 0 0 0-.284.054.416.416 0 0 0 .284.057 8.152 8.152 0 0 0 .8.277.4.4 0 0 0 .4-.555c-.017-.064-.051-.049-.059-.006a.414.414 0 0 1-.434.266c-.252 0-.306-.093-.7-.093m-2.629 1.42c.042.063.491.69-.2.93-.031.011-.041.043 0 .064a.573.573 0 0 0 .759-.192.862.862 0 0 1-.137.983 1.086 1.086 0 0 0 .67.393.93.93 0 0 0 .42-.474.907.907 0 0 1 .009.54c1.044.1 1.413-.794 2.216-.633.024 0 .034-.012.034-.039a1.776 1.776 0 0 0-1.31-1.766c-.992-.206-.725-.644-.725-.644a1.021 1.021 0 0 1 .66.175.28.28 0 0 0-.031-.281.743.743 0 0 0 .062-.235 1 1 0 0 1-.594-.108c-.074-.3.121-.725.82-.27a.593.593 0 0 0 .162-.423.207.207 0 0 0 .086-.153 1.657 1.657 0 0 0-.7-.5c-.035-.182-.253-.445-.91-.35-.311.041-.536-.046-.431-.24.018-.033-.038-.039-.067-.007a.268.268 0 0 0 .1.442.644.644 0 0 1 .323.537c0 .068-.072.074-.089.005a.808.808 0 0 0-1.25-.374.563.563 0 0 0 .479.487.245.245 0 0 0 .222-.235c0-.067.032-.058.05-.007a.375.375 0 0 1-.6.355 1.215 1.215 0 0 0-.2 1.172c.073.358-.09.7-.389.541-.015-.007-.03-.013-.03.025a.375.375 0 0 0 .593.285m2.24-2.2c-.19.227-.5.175-.574-.2.39-.022.558.02.574.2m12.1.875a.413.413 0 0 1-.433-.266c-.009-.043-.043-.058-.059.006a.4.4 0 0 0 .395.555 8.156 8.156 0 0 0 .8-.277.414.414 0 0 0 .283-.057.477.477 0 0 0-.283-.054c-.4 0-.452.093-.7.093m3.925 1.042c0-.038-.015-.032-.03-.025-.3.161-.462-.183-.389-.541a1.212 1.212 0 0 0-.2-1.172.374.374 0 0 1-.6-.355c.019-.051.05-.06.05.007a.245.245 0 0 0 .22.235.563.563 0 0 0 .48-.487.807.807 0 0 0-1.249.374c-.018.069-.095.063-.09-.005a.648.648 0 0 1 .312-.54.268.268 0 0 0 .1-.442c-.031-.032-.086-.026-.068.007.1.194-.119.281-.43.24-.659-.1-.876.168-.91.35a1.651 1.651 0 0 0-.7.5.207.207 0 0 0 .086.153.6.6 0 0 0 .161.423c.7-.454.894-.029.822.27a1.006 1.006 0 0 1-.6.108.751.751 0 0 0 .063.235.28.28 0 0 0-.031.281 1.018 1.018 0 0 1 .66-.175s.267.437-.726.644a1.776 1.776 0 0 0-1.31 1.766c0 .026.011.042.034.039.8-.162 1.172.734 2.217.633a.9.9 0 0 1 .008-.54.931.931 0 0 0 .421.474 1.089 1.089 0 0 0 .669-.393.862.862 0 0 1-.136-.983.573.573 0 0 0 .758.192c.046-.021.036-.053.005-.064-.692-.24-.242-.868-.2-.93a.374.374 0 0 0 .592-.285m-2.258-2.117c-.075.375-.384.427-.573.2.015-.181.183-.222.573-.2m-7.356-6.294a.417.417 0 0 0 .068.223.137.137 0 0 1 .023.177c-.03.031-.078.042-.166-.024a.351.351 0 0 0-.206-.074.2.2 0 1 0 0 .395.354.354 0 0 0 .206-.074c.088-.066.136-.055.166-.024a2.565 2.565 0 0 1-.048.611.458.458 0 0 0-.369.4.518.518 0 1 0 1.017 0 .458.458 0 0 0-.369-.4 2.623 2.623 0 0 1-.048-.611c.03-.031.079-.041.166.024a.358.358 0 0 0 .208.074.2.2 0 1 0 0-.395.355.355 0 0 0-.208.074c-.087.066-.136.055-.166.024a.138.138 0 0 1 .023-.177.425.425 0 0 0 .069-.223.19.19 0 1 0-.366 0m.183 2.392a.394.394 0 1 0 .365.392.38.38 0 0 0-.365-.392m0 3.778a7.326 7.326 0 0 1 2.289.3c.008-.794 0-1.237.427-1.171-.23-.667.767-.928.767-1.8a.53.53 0 0 0-.488-.638c-.332 0-.28.232-.562.232-.035 0-.071-.01-.071.018a.269.269 0 0 0 .209.271 1.808 1.808 0 0 0 .305-.186c.056 0 .135.048.135.239a1.87 1.87 0 0 1-.491 1.1.3.3 0 0 0-.244-.147.361.361 0 0 0-.3.395.5.5 0 0 0 .04.207.487.487 0 0 1-.228.084.289.289 0 0 1-.3-.336c0-.63.787-1.185.787-1.984a.714.714 0 0 0-.733-.761c-.532 0-.433.521-.892.521a.031.031 0 0 0-.039.028.374.374 0 0 0 .318.321c.255 0 .327-.473.551-.473.085 0 .211.054.211.374a3.089 3.089 0 0 1-.28 1.037.321.321 0 0 0-.231-.111.4.4 0 0 0-.34.45.577.577 0 0 0 .155.4.538.538 0 0 1-.395.289.4.4 0 0 1-.459-.4 3.07 3.07 0 0 0 .388-.668.333.333 0 0 0-.288-.379.331.331 0 0 1-.489 0 .333.333 0 0 0-.288.379 3.072 3.072 0 0 0 .387.668.4.4 0 0 1-.457.4.541.541 0 0 1-.4-.289.577.577 0 0 0 .155-.4.4.4 0 0 0-.339-.45.323.323 0 0 0-.232.111 3.108 3.108 0 0 1-.279-1.037c0-.321.125-.374.21-.374.225 0 .3.473.552.473a.373.373 0 0 0 .317-.321.032.032 0 0 0-.039-.028c-.459 0-.36-.521-.891-.521a.714.714 0 0 0-.733.761c0 .8.786 1.354.786 1.984a.288.288 0 0 1-.3.336.48.48 0 0 1-.228-.084.518.518 0 0 0 .039-.207.361.361 0 0 0-.3-.395.3.3 0 0 0-.244.147 1.87 1.87 0 0 1-.491-1.1c0-.192.08-.239.135-.239a1.863 1.863 0 0 0 .306.186.269.269 0 0 0 .208-.271c0-.028-.036-.018-.07-.018-.283 0-.231-.232-.562-.232a.53.53 0 0 0-.489.638c0 .871 1 1.132.767 1.8.425-.066.419.377.426 1.171a7.348 7.348 0 0 1 2.291-.3m-2.684 1.173c-.4.093-.684.181-.813.224a.389.389 0 0 1 .23-.4.027.027 0 0 0 .007-.048c-.354-.253-.545.232-.55.249a.255.255 0 0 0-.318.214c0 .547-1.164.849-1.433.895a1.461 1.461 0 0 1 .673.84 3 3 0 0 1 .837-.7.191.191 0 0 1 .134.2c0 .024.023.032.037.011a.4.4 0 0 0 .08-.441.24.24 0 0 1 .27-.29v3.646l-.136.029c-.061.012-.558-.441-1.126-.863s-.874-.17-1.522.207a1.887 1.887 0 0 1-1.706.046 4.173 4.173 0 0 0-.98 2.183 1.576 1.576 0 0 1-.616.138.566.566 0 0 1-.66-.58c0-.925 1.078-1.323 1.078-2.235a1.071 1.071 0 0 0-1.131-1.121h-.928a.56.56 0 0 1-.539-.415c-.021-.046-.061-.018-.046.017a4.059 4.059 0 0 1-.044.424.533.533 0 0 0 .579.594.856.856 0 0 0 .386-.086c.035-.023.054.014.038.034a.785.785 0 0 0-.111.686c.017.022.037.017.04 0a.953.953 0 0 1 .892-.761.551.551 0 0 1 .56.638c0 .743-1.214 1.287-1.214 2.308a1.2 1.2 0 0 0 1.608 1.093c-.034 1.036-1.139 1.39-1.173.648 0-.036-.026-.044-.044 0a.513.513 0 0 0 .346.792c.029.007.015.025-.012.045-.426.291-.195 1.433-.173 1.769a.36.36 0 0 1-.454.413c-.019-.008-.037 0-.008.04a.46.46 0 0 0 .711.037c.3.1.113.371-.086.514-.03.023-.028.045 0 .048a.518.518 0 0 0 .586-.349.465.465 0 0 0 .566.131.35.35 0 0 1 .561.3c0 .038.024.014.038-.007a.431.431 0 0 0-.217-.741.313.313 0 0 1 .51.064c.016.022.031.027.034-.017.027-.557-.395-.609-.668-.366a.261.261 0 0 1 .309-.36c.01 0 .029-.016.008-.037a.378.378 0 0 0-.645.046.614.614 0 0 1-.53.1c.112-1.936 1.7-1.25 1.919-2.191.009-.049.031-.03.034-.013.06.23.6.261.7-.191 0-.028 0-.05-.017-.029-.46.494-1.5-1.048-.082-2.3a1.945 1.945 0 0 1 2.7-.12.18.18 0 0 1-.118.224c-.02.006-.026.026 0 .038a.29.29 0 0 0 .352-.083.3.3 0 0 1-.067.508c-.026.018-.014.035.007.04a.423.423 0 0 0 .443-.365l.041.024v1.1c0 1.567 1.683 1.784 3.53 3.112 1.846-1.329 3.529-1.546 3.529-3.112v-1.1l.041-.024a.425.425 0 0 0 .444.365c.021 0 .033-.023.007-.04a.3.3 0 0 1-.067-.508.289.289 0 0 0 .352.083c.031-.013.024-.033 0-.038a.18.18 0 0 1-.119-.224 1.946 1.946 0 0 1 2.7.12c1.413 1.253.377 2.8-.082 2.3-.02-.02-.022 0-.017.029.1.453.638.421.7.191 0-.017.025-.036.036.013.218.941 1.807.256 1.918 2.191a.616.616 0 0 1-.531-.1.378.378 0 0 0-.645-.046.02.02 0 0 0 .01.037.261.261 0 0 1 .308.36c-.273-.243-.7-.191-.668.366 0 .044.017.039.033.017a.314.314 0 0 1 .511-.064.431.431 0 0 0-.217.741c.014.02.033.045.036.007a.351.351 0 0 1 .563-.3.463.463 0 0 0 .565-.131.517.517 0 0 0 .585.349c.034 0 .037-.025.006-.048-.2-.142-.383-.414-.086-.514a.46.46 0 0 0 .711-.037c.029-.037.011-.048-.008-.04a.359.359 0 0 1-.452-.413c.021-.336.252-1.478-.175-1.769-.027-.019-.041-.038-.011-.045a.514.514 0 0 0 .346-.792c-.018-.046-.042-.038-.045 0-.034.742-1.138.388-1.173-.648a1.2 1.2 0 0 0 1.608-1.093c0-1.021-1.213-1.565-1.213-2.308a.551.551 0 0 1 .559-.638.953.953 0 0 1 .892.761c0 .018.025.024.041 0a.785.785 0 0 0-.111-.686.025.025 0 0 1 .037-.034.86.86 0 0 0 .386.086.534.534 0 0 0 .58-.594c0-.231-.074-.348-.045-.424.015-.035-.024-.062-.045-.017a.562.562 0 0 1-.539.415h-.929a1.072 1.072 0 0 0-1.132 1.121c0 .912 1.079 1.309 1.079 2.235a.566.566 0 0 1-.66.58 1.572 1.572 0 0 1-.616-.138 4.178 4.178 0 0 0-.979-2.183 1.887 1.887 0 0 1-1.706-.046c-.648-.377-.954-.63-1.522-.207s-1.065.875-1.127.863l-.136-.029v-3.65a.242.242 0 0 1 .271.29.4.4 0 0 0 .079.441c.014.021.035.014.037-.011a.191.191 0 0 1 .135-.2 3.032 3.032 0 0 1 .837.7 1.457 1.457 0 0 1 .672-.84c-.269-.046-1.433-.348-1.433-.895a.254.254 0 0 0-.317-.214c0-.017-.2-.5-.551-.249a.027.027 0 0 0 .007.048.388.388 0 0 1 .23.4 11.963 11.963 0 0 0-3.5-.547 11.7 11.7 0 0 0-2.207.221V39.6h-.477v-1.165M9.021 51.38a.312.312 0 0 1-.211-.32v-.784a4.911 4.911 0 0 0-1.923-.314 1.463 1.463 0 0 0-1.26.311L5.4 51.767a2.41 2.41 0 0 1 1.76-.28c1.657.113 3.374 1.163 3.374.043v-.659c-1.3 0-1.489.444-1.489.509m10.2-.509v.659c0 1.12 1.718.07 3.374-.043a2.41 2.41 0 0 1 1.76.28l-.251-1.494a1.459 1.459 0 0 0-1.26-.311 4.916 4.916 0 0 0-1.923.314v.784a.311.311 0 0 1-.21.32c0-.065-.191-.509-1.49-.509m-4.354-.678c2.669 0 5.379.15 5.733.583.029.034.04 0 .04-.027V49.23c0-.443-2.8-.7-5.773-.7s-5.774.258-5.774.7v1.519c0 .026.012.061.04.027.354-.433 3.065-.583 5.734-.583m-2.38-7.163-.27-.076-.023.037-.313-.149h.28c.026 0 .027-.017.014-.032l-.239-.251.309.123c.02.008.029-.008.018-.023l-.206-.325.3.218c.017.013.03 0 .023-.017l-.144-.382.277.281c.013.012.027.006.023-.014l-.076-.381.2.318c.012.019.027.014.027-.009 0-.062.007-.347.007-.347l.129.318c.008.022.024.023.035 0l.1-.269.012.363-.045.009-.056.437c.4-.1.905-.842 1.289-.842.459 0 .625.577 1.474.285a2.871 2.871 0 0 1 .371 1.043c.326.331.785.22.785-.13 0-.47-.478-.561-.478-1.053a.518.518 0 0 1 .535-.535c.205 0 .509.1.683.1a.277.277 0 0 0 .275-.227c.018-.05.075-.034.07.005s.023.11.023.215a.386.386 0 0 1-.474.314c-.021-.017-.037.009-.021.022a.341.341 0 0 1-.026.358c-.01.013-.021.011-.024 0a.65.65 0 0 0-.5-.5.23.23 0 0 0-.235.244 3.89 3.89 0 0 1 .522 1.115c0 .6-.557.747-1.116.6.02.571.813.91.831.5 0-.028.015-.011.024 0a.225.225 0 0 1-.087.375.876.876 0 0 1 .2.545c.061.268.325.12.338.112s.02 0 .015.016a.275.275 0 0 1-.369.174c-.139.106.03.2.157.241.019.006.017.021 0 .027a.287.287 0 0 1-.39-.076.261.261 0 0 1-.277.181.2.2 0 0 0-.146.262c0 .014-.007.018-.016.01a.239.239 0 0 1 0-.428.174.174 0 0 0-.257.125c0 .016-.015.016-.02 0-.107-.3.126-.392.293-.316a.254.254 0 0 0-.319-.143c-.009 0-.016 0-.01-.017a.206.206 0 0 1 .345-.091.34.34 0 0 0 .294-.039c-.355-.759-1.046-.123-1.2-.718 0-.013-.017-.024-.026.009-.036.127-.338.135-.393-.114 0-.02 0-.023.014-.009.044.048.139.09.263-.1a.783.783 0 0 0 .094-.412 1.278 1.278 0 0 0-1.1-1.236 2.056 2.056 0 0 0-1.215.441l.314.077a.491.491 0 0 1-.616.456l.048-.391a.459.459 0 0 0-.238.164c0 .007-.014 0-.017 0a.313.313 0 0 1 .167-.361c.006 0 0-.009-.006-.009a.3.3 0 0 0-.263.156.006.006 0 0 1-.012 0 .253.253 0 0 1 .033-.236m.933 2.638c-.121.158-.225.007-.383.007a.178.178 0 0 0-.178.187c0 .01-.006.013-.012 0a.234.234 0 0 1 .13-.4.186.186 0 0 0-.288.027c-.007.013-.018.007-.018-.008 0-.307.222-.328.371-.193a.157.157 0 0 0-.165-.2c-.013 0-.016-.011-.01-.017a.2.2 0 0 1 .149-.086 1.231 1.231 0 0 1 .282.216.792.792 0 0 0 .4-.249 2.1 2.1 0 0 1-.124-.705c0-.01 0-.012-.011-.008-.074.045-.266.044-.266-.208 0-.02.006-.022.016-.005.084.124.219-.017.287-.1a1.484 1.484 0 0 1 .988-.7.718.718 0 0 1 .382.157c-.18.235 0 .461.133.432.015 0 .019.013 0 .019-.691.278-1 .391-1 1.011 0 .324.1.5.281.461.013 0 .017 0 .007.014a.254.254 0 0 1-.2.11 1.016 1.016 0 0 1-.246-.085.465.465 0 0 0-.336.3.238.238 0 0 0 .12.185c.007 0 0 .009 0 .009a.247.247 0 0 1-.309-.176m1.819-6.041c-.215-.014-.354.038-.347.112.1.118.244.1.347-.112m-.8.574a.852.852 0 0 1 .339-.016.027.027 0 0 1 0 .052c-.319.043-.333.2-.537.2a.266.266 0 0 1-.223-.359c.007-.028.027-.028.032 0 .021.093.144.193.393.124m-4.13 7.575c.211.289.413.018.69.018a.313.313 0 0 1 .33.339c0 .015.013.019.026 0a.427.427 0 0 0-.24-.724.343.343 0 0 1 .524.052.017.017 0 0 0 .031-.011c0-.56-.391-.6-.673-.357a.281.281 0 0 1 .3-.361c.024 0 .032-.018.02-.033-.349-.4-.609.1-.669.184-.139.2-.638-.176-.837-.4a1.785 1.785 0 0 0 .44-.949v-.08c0-.015 0-.019.017-.012a.322.322 0 0 0 .163.046c.1 0 .291-.034.291-.419 0-.029-.012-.027-.024-.01a.182.182 0 0 1-.155.1c-.355 0-1.1-1.273-1.973-1.273a1.417 1.417 0 0 0-.881.431.319.319 0 0 1 .116.306.324.324 0 0 1-.258.278c-.021.006-.023.022 0 .033a8.208 8.208 0 0 1 1.429.677 1.167 1.167 0 0 1 .049 1.1c-.121.5-.379.433-.475.418-.014 0-.019.007-.009.018a.454.454 0 0 0 .371.206 1.892 1.892 0 0 0 .435-.153.789.789 0 0 1 .618.542.441.441 0 0 1-.219.337.01.01 0 0 0 0 .019.455.455 0 0 0 .564-.326m9.684.314c.012 0 .015-.013.007-.019a.442.442 0 0 1-.22-.337.791.791 0 0 1 .619-.542 1.863 1.863 0 0 0 .434.153.46.46 0 0 0 .373-.206c.008-.011 0-.021-.01-.018-.1.015-.354.085-.475-.418a1.164 1.164 0 0 1 .048-1.1 8.244 8.244 0 0 1 1.429-.677c.024-.011.022-.028 0-.033a.323.323 0 0 1-.257-.278.317.317 0 0 1 .115-.306 1.417 1.417 0 0 0-.88-.431c-.876 0-1.618 1.273-1.974 1.273a.182.182 0 0 1-.154-.1c-.012-.018-.024-.019-.024.01 0 .385.189.419.291.419a.321.321 0 0 0 .162-.046c.012-.008.017 0 .017.012v.08a1.783 1.783 0 0 0 .441.949c-.2.223-.7.6-.836.4-.06-.081-.321-.586-.669-.184-.013.015 0 .033.019.033a.282.282 0 0 1 .3.361c-.283-.243-.674-.2-.674.357a.017.017 0 0 0 .032.011.34.34 0 0 1 .522-.052.428.428 0 0 0-.239.724c.014.019.025.015.026 0a.315.315 0 0 1 .331-.339c.276 0 .478.272.689-.018a.454.454 0 0 0 .563.326m-7.084-7.35a.152.152 0 0 1-.155-.019c-.007 0-.009 0-.006.006a.325.325 0 0 0 .242.212.23.23 0 0 0 .171-.079s.516.179.772.255a.968.968 0 0 0-.173.5 40.066 40.066 0 0 0-1.029-.609l-.255.374c-.042.062-.246-.1-.2-.16l.2-.287a.283.283 0 0 0-.262-.013c-.006 0-.011 0-.006-.013a.273.273 0 0 1 .364-.152c0-.159-.22-.108-.277-.091-.008 0-.01 0 0-.008a.339.339 0 0 1 .439-.1l.087-.129-.177-.2.112-.163.123.179.95-1.4a.9.9 0 0 1 .281-.109 1.081 1.081 0 0 1-.006.322l-.934 1.408.2.07-.108.163-.233-.115zm3.331-.228c0 .129.073.315.232.262.008 0 .015 0 .013.008-.024.142-.261.274-.369.1a.385.385 0 0 0 .133.542.019.019 0 0 1 0 .033.263.263 0 0 1-.407-.112.4.4 0 0 0-.042.532 1 1 0 0 1-.9.087 1.535 1.535 0 0 0-.88-.3.755.755 0 0 1 .778-.775c.377-.066.424-.251.371-.392a.667.667 0 0 0-.361.09.153.153 0 0 1 .017-.155.4.4 0 0 1-.034-.131.421.421 0 0 0 .31-.063c.046-.295-.233-.326-.445-.168a.273.273 0 0 1-.083-.218.118.118 0 0 1-.048-.087.924.924 0 0 1 .393-.28c.02-.1.134-.233.466-.2a1.2 1.2 0 0 0-.067-.532c-.013-.028.006-.044.035-.025a4.607 4.607 0 0 0 .31.375 3.569 3.569 0 0 1 .392-.2 4.208 4.208 0 0 1 .071.459 4.276 4.276 0 0 0 .463.06c.031.014.03.04 0 .044a1.03 1.03 0 0 0-.443.246 1.4 1.4 0 0 1 .091.8" fill="#fff" fill-rule="evenodd"/></svg>